<svg width="421" height="260" viewBox="0 0 421 260" fill="none" xmlns="http://www.w3.org/2000/svg">
<g filter="url(#filter0_d_81_21)">
<rect x="93" width="290" height="93" rx="46.5" fill="#8FD0FF"/>
</g>
<path d="M146.17 58.45C141.25 58.45 137.65 55.45 137.65 50.02V38.17C137.65 37.51 138.19 37 138.82 37H141.4C142.06 37 142.57 37.51 142.57 38.17V49.72C142.57 52.18 144.07 53.53 146.17 53.53C148.27 53.53 149.74 52.18 149.74 49.72V38.17C149.74 37.51 150.28 37 150.91 37H153.49C154.15 37 154.66 37.51 154.66 38.17V50.02C154.66 55.45 151.09 58.45 146.17 58.45ZM159.153 58C158.493 58 157.953 57.46 157.953 56.83V38.17C157.953 37.51 158.493 37 159.153 37H161.733C162.363 37 162.903 37.51 162.903 38.17V56.83C162.903 57.46 162.363 58 161.733 58H159.153ZM167.715 59.47C167.115 59.26 166.785 58.6 166.995 57.97L174.585 36.19C174.795 35.59 175.455 35.26 176.055 35.47L177.615 36.01C178.215 36.22 178.545 36.91 178.335 37.51L170.775 59.29C170.565 59.89 169.905 60.22 169.275 60.01L167.715 59.47ZM190.994 58.45C186.074 58.45 182.474 55.45 182.474 50.02V38.17C182.474 37.51 183.014 37 183.644 37H186.224C186.884 37 187.394 37.51 187.394 38.17V49.72C187.394 52.18 188.894 53.53 190.994 53.53C193.094 53.53 194.564 52.18 194.564 49.72V38.17C194.564 37.51 195.104 37 195.734 37H198.314C198.974 37 199.484 37.51 199.484 38.17V50.02C199.484 55.45 195.914 58.45 190.994 58.45ZM203.437 58C202.537 58 201.967 57.01 202.417 56.23L208.027 46.6L203.437 38.74C202.987 37.96 203.557 37 204.457 37H206.737C207.247 37 207.727 37.27 207.967 37.72L210.757 42.73L213.547 37.72C213.787 37.27 214.237 37 214.777 37H217.057C217.957 37 218.527 37.96 218.047 38.74L213.457 46.6L219.067 56.23C219.517 57.01 218.977 58 218.077 58H215.527C215.017 58 214.567 57.7 214.297 57.28L210.757 50.89L207.217 57.28C206.947 57.7 206.497 58 205.987 58H203.437ZM233.127 58C232.467 58 231.957 57.46 231.957 56.83V38.17C231.957 37.51 232.467 37 233.127 37H240.087C246.237 37 250.557 41.44 250.557 47.5C250.557 53.53 246.237 58 240.087 58H233.127ZM240.087 53.29C243.597 53.29 245.637 50.71 245.637 47.5C245.637 44.26 243.597 41.68 240.087 41.68H236.877V53.29H240.087ZM254.308 58C253.678 58 253.138 57.46 253.138 56.83V38.17C253.138 37.51 253.678 37 254.308 37H265.528C266.188 37 266.728 37.51 266.728 38.17V40.51C266.728 41.17 266.188 41.68 265.528 41.68H258.058V45.16H264.598C265.258 45.16 265.768 45.67 265.768 46.33V48.43C265.768 49.09 265.258 49.6 264.598 49.6H258.058V53.29H265.768C266.428 53.29 266.938 53.83 266.938 54.46V56.83C266.938 57.46 266.428 58 265.768 58H254.308ZM278.32 58.45C275.08 58.45 272.05 57.46 270.34 55.39C269.71 54.67 269.89 53.53 270.7 52.99L272.17 52.03C272.65 51.73 273.31 51.82 273.7 52.24C274.63 53.26 276.07 53.89 277.96 53.89C279.46 53.89 280.99 53.17 280.99 51.76C280.99 50.32 279.19 50.17 277.06 49.63C272.5 48.49 270.22 46.72 270.22 43C270.22 38.77 273.55 36.52 277.6 36.52C279.79 36.52 281.92 37.33 283.39 38.23C284.23 38.74 284.41 39.85 283.84 40.63L282.94 41.8C282.58 42.31 281.89 42.43 281.38 42.1C280.51 41.56 279.31 41.05 277.9 41.05C276.31 41.05 275.05 41.65 275.05 42.82C275.05 43.84 275.8 44.38 278.05 44.92C282.67 46 285.94 47.2 285.94 51.46C285.94 56.11 282.07 58.45 278.32 58.45ZM289.963 58C289.303 58 288.763 57.46 288.763 56.83V38.17C288.763 37.51 289.303 37 289.963 37H292.543C293.173 37 293.713 37.51 293.713 38.17V56.83C293.713 57.46 293.173 58 292.543 58H289.963ZM307.526 58.45C301.466 58.45 296.516 53.56 296.516 47.5C296.516 41.41 301.466 36.52 307.526 36.52C310.556 36.52 313.406 37.75 315.386 39.7C316.016 40.33 315.926 41.35 315.236 41.86L313.166 43.33C312.776 43.63 312.266 43.57 311.936 43.24C310.856 42.13 309.206 41.44 307.526 41.44C304.196 41.44 301.466 44.14 301.466 47.5C301.466 50.83 304.196 53.53 307.526 53.53C310.196 53.53 311.906 52.18 312.596 50.08H307.136C306.476 50.08 305.966 49.54 305.966 48.91V46.33C305.966 45.67 306.476 45.16 307.136 45.16H316.466C317.096 45.16 317.636 45.67 317.636 46.33V47.71C317.636 53.95 313.886 58.45 307.526 58.45ZM321.632 58C321.002 58 320.462 57.46 320.462 56.83V38.17C320.462 37.51 321.002 37 321.632 37H324.662C325.262 37 325.802 37.3 326.102 37.81L333.002 49.84V38.17C333.002 37.51 333.512 37 334.172 37H336.752C337.412 37 337.922 37.51 337.922 38.17V56.83C337.922 57.46 337.412 58 336.752 58H333.722C333.152 58 332.582 57.67 332.312 57.16L325.382 45.16V56.83C325.382 57.46 324.872 58 324.212 58H321.632Z" fill="black"/>
<g filter="url(#filter1_d_81_21)">
<rect x="8" y="123" width="405" height="121" rx="60.5" fill="#FFDDAE"/>
</g>
<path d="M49.82 195C49.16 195 48.65 194.46 48.65 193.83V175.17C48.65 174.51 49.16 174 49.82 174H61.04C61.7 174 62.21 174.51 62.21 175.17V177.51C62.21 178.17 61.7 178.68 61.04 178.68H53.57V182.16H59.87C60.53 182.16 61.04 182.67 61.04 183.33V185.43C61.04 186.09 60.53 186.6 59.87 186.6H53.57V193.83C53.57 194.46 53.03 195 52.4 195H49.82ZM66.2263 195C65.5663 195 65.0563 194.46 65.0563 193.83V175.17C65.0563 174.51 65.5663 174 66.2263 174H73.4263C77.1763 174 80.5963 176.28 80.5963 180.9C80.5963 184.23 78.9463 186.39 76.6663 187.38L80.9863 193.5C81.4363 194.13 80.9863 195 80.2363 195H77.1463C76.6963 195 76.2463 194.76 75.9763 194.37L71.7463 188.04H69.9763V193.83C69.9763 194.46 69.4663 195 68.8063 195H66.2263ZM73.4263 183.57C74.7763 183.57 75.7363 182.52 75.7363 181.14C75.7363 179.76 74.7763 178.68 73.4263 178.68H69.9763V183.57H73.4263ZM94.0084 195.45C87.9484 195.45 82.9984 190.56 82.9984 184.5C82.9984 178.41 87.9484 173.52 94.0084 173.52C100.068 173.52 105.018 178.41 105.018 184.5C105.018 190.56 100.068 195.45 94.0084 195.45ZM94.0084 190.53C97.3684 190.53 100.068 187.83 100.068 184.5C100.068 181.14 97.3684 178.44 94.0084 178.44C90.6484 178.44 87.9184 181.14 87.9184 184.5C87.9184 187.83 90.6484 190.53 94.0084 190.53ZM108.677 195C108.047 195 107.507 194.46 107.507 193.83V175.17C107.507 174.51 108.047 174 108.677 174H111.707C112.307 174 112.847 174.3 113.147 174.81L120.047 186.84V175.17C120.047 174.51 120.557 174 121.217 174H123.797C124.457 174 124.967 174.51 124.967 175.17V193.83C124.967 194.46 124.457 195 123.797 195H120.767C120.197 195 119.627 194.67 119.357 194.16L112.427 182.16V193.83C112.427 194.46 111.917 195 111.257 195H108.677ZM133.259 195C132.629 195 132.089 194.46 132.089 193.83V178.68H128.729C128.069 178.68 127.529 178.17 127.529 177.51V175.17C127.529 174.51 128.069 174 128.729 174H140.399C141.059 174 141.599 174.51 141.599 175.17V177.51C141.599 178.17 141.059 178.68 140.399 178.68H137.039V193.83C137.039 194.46 136.499 195 135.839 195H133.259ZM145.299 195C144.669 195 144.129 194.46 144.129 193.83V175.17C144.129 174.51 144.669 174 145.299 174H156.519C157.179 174 157.719 174.51 157.719 175.17V177.51C157.719 178.17 157.179 178.68 156.519 178.68H149.049V182.16H155.589C156.249 182.16 156.759 182.67 156.759 183.33V185.43C156.759 186.09 156.249 186.6 155.589 186.6H149.049V190.29H156.759C157.419 190.29 157.929 190.83 157.929 191.46V193.83C157.929 194.46 157.419 195 156.759 195H145.299ZM162.261 195C161.631 195 161.091 194.46 161.091 193.83V175.17C161.091 174.51 161.631 174 162.261 174H165.291C165.891 174 166.431 174.3 166.731 174.81L173.631 186.84V175.17C173.631 174.51 174.141 174 174.801 174H177.381C178.041 174 178.551 174.51 178.551 175.17V193.83C178.551 194.46 178.041 195 177.381 195H174.351C173.781 195 173.211 194.67 172.941 194.16L166.011 182.16V193.83C166.011 194.46 165.501 195 164.841 195H162.261ZM183.033 195C182.373 195 181.863 194.46 181.863 193.83V175.17C181.863 174.51 182.373 174 183.033 174H189.993C196.143 174 200.463 178.44 200.463 184.5C200.463 190.53 196.143 195 189.993 195H183.033ZM189.993 190.29C193.503 190.29 195.543 187.71 195.543 184.5C195.543 181.26 193.503 178.68 189.993 178.68H186.783V190.29H189.993ZM214.117 195C213.457 195 212.947 194.46 212.947 193.83V175.17C212.947 174.51 213.457 174 214.117 174H221.077C227.227 174 231.547 178.44 231.547 184.5C231.547 190.53 227.227 195 221.077 195H214.117ZM221.077 190.29C224.587 190.29 226.627 187.71 226.627 184.5C226.627 181.26 224.587 178.68 221.077 178.68H217.867V190.29H221.077ZM235.299 195C234.669 195 234.129 194.46 234.129 193.83V175.17C234.129 174.51 234.669 174 235.299 174H246.519C247.179 174 247.719 174.51 247.719 175.17V177.51C247.719 178.17 247.179 178.68 246.519 178.68H239.049V182.16H245.589C246.249 182.16 246.759 182.67 246.759 183.33V185.43C246.759 186.09 246.249 186.6 245.589 186.6H239.049V190.29H246.759C247.419 190.29 247.929 190.83 247.929 191.46V193.83C247.929 194.46 247.419 195 246.759 195H235.299ZM258.321 195C257.631 195 257.001 194.55 256.761 193.89L250.191 175.56C249.891 174.81 250.461 174 251.271 174H253.971C254.571 174 255.111 174.39 255.291 174.96L259.731 188.55L264.171 174.96C264.351 174.39 264.891 174 265.491 174H268.191C269.001 174 269.571 174.81 269.271 175.56L262.671 193.89C262.461 194.55 261.831 195 261.141 195H258.321ZM272.799 195C272.169 195 271.629 194.46 271.629 193.83V175.17C271.629 174.51 272.169 174 272.799 174H284.019C284.679 174 285.219 174.51 285.219 175.17V177.51C285.219 178.17 284.679 178.68 284.019 178.68H276.549V182.16H283.089C283.749 182.16 284.259 182.67 284.259 183.33V185.43C284.259 186.09 283.749 186.6 283.089 186.6H276.549V190.29H284.259C284.919 190.29 285.429 190.83 285.429 191.46V193.83C285.429 194.46 284.919 195 284.259 195H272.799ZM289.821 195C289.161 195 288.621 194.46 288.621 193.83V175.17C288.621 174.51 289.161 174 289.821 174H292.371C293.031 174 293.571 174.51 293.571 175.17V190.29H300.111C300.741 190.29 301.281 190.83 301.281 191.46V193.83C301.281 194.46 300.741 195 300.111 195H289.821ZM313.471 195.45C307.411 195.45 302.461 190.56 302.461 184.5C302.461 178.41 307.411 173.52 313.471 173.52C319.531 173.52 324.481 178.41 324.481 184.5C324.481 190.56 319.531 195.45 313.471 195.45ZM313.471 190.53C316.831 190.53 319.531 187.83 319.531 184.5C319.531 181.14 316.831 178.44 313.471 178.44C310.111 178.44 307.381 181.14 307.381 184.5C307.381 187.83 310.111 190.53 313.471 190.53ZM328.17 195C327.54 195 327 194.46 327 193.83V175.17C327 174.51 327.54 174 328.17 174H334.89C338.46 174 341.91 176.67 341.91 181.23C341.91 185.79 338.46 188.49 334.89 188.49H331.95V193.83C331.95 194.46 331.41 195 330.75 195H328.17ZM334.89 183.81C336.24 183.81 337.11 182.61 337.11 181.23C337.11 179.88 336.24 178.68 334.89 178.68H331.95V183.81H334.89ZM345.631 195C345.001 195 344.461 194.46 344.461 193.83V175.17C344.461 174.51 345.001 174 345.631 174H356.851C357.511 174 358.051 174.51 358.051 175.17V177.51C358.051 178.17 357.511 178.68 356.851 178.68H349.381V182.16H355.921C356.581 182.16 357.091 182.67 357.091 183.33V185.43C357.091 186.09 356.581 186.6 355.921 186.6H349.381V190.29H357.091C357.751 190.29 358.261 190.83 358.261 191.46V193.83C358.261 194.46 357.751 195 357.091 195H345.631ZM362.623 195C361.963 195 361.453 194.46 361.453 193.83V175.17C361.453 174.51 361.963 174 362.623 174H369.823C373.573 174 376.993 176.28 376.993 180.9C376.993 184.23 375.343 186.39 373.063 187.38L377.383 193.5C377.833 194.13 377.383 195 376.633 195H373.543C373.093 195 372.643 194.76 372.373 194.37L368.143 188.04H366.373V193.83C366.373 194.46 365.863 195 365.203 195H362.623ZM369.823 183.57C371.173 183.57 372.133 182.52 372.133 181.14C372.133 179.76 371.173 178.68 369.823 178.68H366.373V183.57H369.823Z" fill="black"/>
<defs>
<filter id="filter0_d_81_21" x="85" y="0" width="306" height="109" filterUnits="userSpaceOnUse" color-interpolation-filters="sRGB">
<feFlood flood-opacity="0" result="BackgroundImageFix"/>
<feColorMatrix in="SourceAlpha" type="matrix" values="0 0 0 0 0 0 0 0 0 0 0 0 0 0 0 0 0 0 127 0" result="hardAlpha"/>
<feOffset dy="8"/>
<feGaussianBlur stdDeviation="4"/>
<feComposite in2="hardAlpha" operator="out"/>
<feColorMatrix type="matrix" values="0 0 0 0 0 0 0 0 0 0 0 0 0 0 0 0 0 0 0.5 0"/>
<feBlend mode="normal" in2="BackgroundImageFix" result="effect1_dropShadow_81_21"/>
<feBlend mode="normal" in="SourceGraphic" in2="effect1_dropShadow_81_21" result="shape"/>
</filter>
<filter id="filter1_d_81_21" x="0" y="123" width="421" height="137" filterUnits="userSpaceOnUse" color-interpolation-filters="sRGB">
<feFlood flood-opacity="0" result="BackgroundImageFix"/>
<feColorMatrix in="SourceAlpha" type="matrix" values="0 0 0 0 0 0 0 0 0 0 0 0 0 0 0 0 0 0 127 0" result="hardAlpha"/>
<feOffset dy="8"/>
<feGaussianBlur stdDeviation="4"/>
<feComposite in2="hardAlpha" operator="out"/>
<feColorMatrix type="matrix" values="0 0 0 0 0 0 0 0 0 0 0 0 0 0 0 0 0 0 0.5 0"/>
<feBlend mode="normal" in2="BackgroundImageFix" result="effect1_dropShadow_81_21"/>
<feBlend mode="normal" in="SourceGraphic" in2="effect1_dropShadow_81_21" result="shape"/>
</filter>
</defs>
</svg>
