<svg width="421" height="260" viewBox="0 0 421 260" fill="none" xmlns="http://www.w3.org/2000/svg">
<g filter="url(#filter0_d_81_22)">
<rect x="38" y="151" width="290" height="93" rx="46.5" fill="#8FD0FF"/>
</g>
<path d="M59.82 209C59.16 209 58.65 208.46 58.65 207.83V189.17C58.65 188.51 59.16 188 59.82 188H66.78C72.93 188 77.25 192.44 77.25 198.5C77.25 204.53 72.93 209 66.78 209H59.82ZM66.78 204.29C70.29 204.29 72.33 201.71 72.33 198.5C72.33 195.26 70.29 192.68 66.78 192.68H63.57V204.29H66.78ZM81.0016 209C80.3716 209 79.8316 208.46 79.8316 207.83V189.17C79.8316 188.51 80.3716 188 81.0016 188H92.2216C92.8816 188 93.4216 188.51 93.4216 189.17V191.51C93.4216 192.17 92.8816 192.68 92.2216 192.68H84.7516V196.16H91.2916C91.9516 196.16 92.4616 196.67 92.4616 197.33V199.43C92.4616 200.09 91.9516 200.6 91.2916 200.6H84.7516V204.29H92.4616C93.1216 204.29 93.6316 204.83 93.6316 205.46V207.83C93.6316 208.46 93.1216 209 92.4616 209H81.0016ZM105.014 209.45C101.774 209.45 98.7438 208.46 97.0338 206.39C96.4038 205.67 96.5838 204.53 97.3938 203.99L98.8638 203.03C99.3438 202.73 100.004 202.82 100.394 203.24C101.324 204.26 102.764 204.89 104.654 204.89C106.154 204.89 107.684 204.17 107.684 202.76C107.684 201.32 105.884 201.17 103.754 200.63C99.1938 199.49 96.9138 197.72 96.9138 194C96.9138 189.77 100.244 187.52 104.294 187.52C106.484 187.52 108.614 188.33 110.084 189.23C110.924 189.74 111.104 190.85 110.534 191.63L109.634 192.8C109.274 193.31 108.584 193.43 108.074 193.1C107.204 192.56 106.004 192.05 104.594 192.05C103.004 192.05 101.744 192.65 101.744 193.82C101.744 194.84 102.494 195.38 104.744 195.92C109.364 197 112.634 198.2 112.634 202.46C112.634 207.11 108.764 209.45 105.014 209.45ZM116.657 209C115.997 209 115.457 208.46 115.457 207.83V189.17C115.457 188.51 115.997 188 116.657 188H119.237C119.867 188 120.407 188.51 120.407 189.17V207.83C120.407 208.46 119.867 209 119.237 209H116.657ZM134.219 209.45C128.159 209.45 123.209 204.56 123.209 198.5C123.209 192.41 128.159 187.52 134.219 187.52C137.249 187.52 140.099 188.75 142.079 190.7C142.709 191.33 142.619 192.35 141.929 192.86L139.859 194.33C139.469 194.63 138.959 194.57 138.629 194.24C137.549 193.13 135.899 192.44 134.219 192.44C130.889 192.44 128.159 195.14 128.159 198.5C128.159 201.83 130.889 204.53 134.219 204.53C136.889 204.53 138.599 203.18 139.289 201.08H133.829C133.169 201.08 132.659 200.54 132.659 199.91V197.33C132.659 196.67 133.169 196.16 133.829 196.16H143.159C143.789 196.16 144.329 196.67 144.329 197.33V198.71C144.329 204.95 140.579 209.45 134.219 209.45ZM148.325 209C147.695 209 147.155 208.46 147.155 207.83V189.17C147.155 188.51 147.695 188 148.325 188H151.355C151.955 188 152.495 188.3 152.795 188.81L159.695 200.84V189.17C159.695 188.51 160.205 188 160.865 188H163.445C164.105 188 164.615 188.51 164.615 189.17V207.83C164.615 208.46 164.105 209 163.445 209H160.415C159.845 209 159.275 208.67 159.005 208.16L152.075 196.16V207.83C152.075 208.46 151.565 209 150.905 209H148.325ZM188.36 209.45C182.3 209.45 177.35 204.56 177.35 198.5C177.35 192.41 182.3 187.52 188.36 187.52C191.39 187.52 194.24 188.75 196.22 190.7C196.85 191.33 196.76 192.35 196.07 192.86L194 194.33C193.61 194.63 193.1 194.57 192.77 194.24C191.69 193.13 190.04 192.44 188.36 192.44C185.03 192.44 182.3 195.14 182.3 198.5C182.3 201.83 185.03 204.53 188.36 204.53C191.03 204.53 192.74 203.18 193.43 201.08H187.97C187.31 201.08 186.8 200.54 186.8 199.91V197.33C186.8 196.67 187.31 196.16 187.97 196.16H197.3C197.93 196.16 198.47 196.67 198.47 197.33V198.71C198.47 204.95 194.72 209.45 188.36 209.45ZM202.496 209C201.836 209 201.326 208.46 201.326 207.83V189.17C201.326 188.51 201.836 188 202.496 188H209.696C213.446 188 216.866 190.28 216.866 194.9C216.866 198.23 215.216 200.39 212.936 201.38L217.256 207.5C217.706 208.13 217.256 209 216.506 209H213.416C212.966 209 212.516 208.76 212.246 208.37L208.016 202.04H206.246V207.83C206.246 208.46 205.736 209 205.076 209H202.496ZM209.696 197.57C211.046 197.57 212.006 196.52 212.006 195.14C212.006 193.76 211.046 192.68 209.696 192.68H206.246V197.57H209.696ZM220.611 209C219.801 209 219.231 208.16 219.531 207.41L226.521 189.05C226.761 188.42 227.391 188 228.051 188H230.931C231.621 188 232.221 188.42 232.461 189.05L239.481 207.41C239.781 208.16 239.211 209 238.371 209H235.701C235.131 209 234.591 208.61 234.381 208.07L233.091 204.47H225.921L224.601 208.07C224.421 208.61 223.881 209 223.281 209H220.611ZM227.511 200H231.501L229.491 194.48L227.511 200ZM243.189 209C242.559 209 242.019 208.46 242.019 207.83V189.17C242.019 188.51 242.559 188 243.189 188H249.909C253.479 188 256.929 190.67 256.929 195.23C256.929 199.79 253.479 202.49 249.909 202.49H246.969V207.83C246.969 208.46 246.429 209 245.769 209H243.189ZM249.909 197.81C251.259 197.81 252.129 196.61 252.129 195.23C252.129 193.88 251.259 192.68 249.909 192.68H246.969V197.81H249.909ZM260.65 209C259.99 209 259.48 208.46 259.48 207.83V189.17C259.48 188.51 259.99 188 260.65 188H263.23C263.89 188 264.4 188.51 264.4 189.17V195.68H272.02V189.17C272.02 188.51 272.53 188 273.19 188H275.77C276.4 188 276.94 188.51 276.94 189.17V207.83C276.94 208.46 276.4 209 275.77 209H273.19C272.53 209 272.02 208.46 272.02 207.83V200.36H264.4V207.83C264.4 208.46 263.89 209 263.23 209H260.65ZM281.452 209C280.792 209 280.252 208.46 280.252 207.83V189.17C280.252 188.51 280.792 188 281.452 188H284.032C284.662 188 285.202 188.51 285.202 189.17V207.83C285.202 208.46 284.662 209 284.032 209H281.452ZM298.864 209.45C292.624 209.45 287.584 204.26 287.884 197.96C288.154 192.23 292.894 187.67 298.624 187.52C301.744 187.46 304.534 188.69 306.514 190.73C307.114 191.33 307.024 192.35 306.334 192.83L304.294 194.33C303.904 194.6 303.364 194.54 303.034 194.21C302.014 193.13 300.544 192.47 298.894 192.44C295.684 192.44 293.014 194.87 292.804 198.05C292.564 201.62 295.384 204.53 298.864 204.53C300.544 204.53 302.014 203.87 303.034 202.76C303.364 202.43 303.904 202.37 304.294 202.64L306.334 204.14C307.024 204.65 307.114 205.64 306.514 206.24C304.594 208.22 301.894 209.45 298.864 209.45Z" fill="black"/>
<g filter="url(#filter1_d_81_22)">
<rect x="8" width="405" height="121" rx="60.5" fill="#FFDDAE"/>
</g>
<path d="M57.82 72C57.19 72 56.65 71.46 56.65 70.83V52.17C56.65 51.51 57.19 51 57.82 51H65.26C68.83 51 71.8 52.95 71.8 56.67C71.8 58.53 70.93 59.94 69.61 60.9C71.56 61.77 73 63.36 73 65.79C73 69.9 69.55 72 65.95 72H57.82ZM65.86 67.29C67.39 67.29 68.08 66.33 68.08 65.25C68.08 64.2 67.39 63.36 65.86 63.36H61.57V67.29H65.86ZM65.26 59.13C66.49 59.13 67.12 58.32 67.12 57.39C67.12 56.46 66.49 55.68 65.26 55.68H61.57V59.13H65.26ZM75.5835 72C74.7735 72 74.2035 71.16 74.5035 70.41L81.4935 52.05C81.7335 51.42 82.3635 51 83.0235 51H85.9035C86.5935 51 87.1935 51.42 87.4335 52.05L94.4535 70.41C94.7535 71.16 94.1835 72 93.3435 72H90.6735C90.1035 72 89.5635 71.61 89.3535 71.07L88.0635 67.47H80.8935L79.5735 71.07C79.3935 71.61 78.8535 72 78.2535 72H75.5835ZM82.4835 63H86.4735L84.4635 57.48L82.4835 63ZM106.464 72.45C100.224 72.45 95.1836 67.26 95.4836 60.96C95.7536 55.23 100.494 50.67 106.224 50.52C109.344 50.46 112.134 51.69 114.114 53.73C114.714 54.33 114.624 55.35 113.934 55.83L111.894 57.33C111.504 57.6 110.964 57.54 110.634 57.21C109.614 56.13 108.144 55.47 106.494 55.44C103.284 55.44 100.614 57.87 100.404 61.05C100.164 64.62 102.984 67.53 106.464 67.53C108.144 67.53 109.614 66.87 110.634 65.76C110.964 65.43 111.504 65.37 111.894 65.64L113.934 67.14C114.624 67.65 114.714 68.64 114.114 69.24C112.194 71.22 109.494 72.45 106.464 72.45ZM118.612 72C117.952 72 117.412 71.46 117.412 70.83V52.17C117.412 51.51 117.952 51 118.612 51H121.192C121.822 51 122.362 51.51 122.362 52.17V59.19L128.302 51.63C128.632 51.21 129.082 51 129.592 51H132.532C133.312 51 133.732 51.9 133.252 52.53L126.682 60.66L133.642 70.5C134.062 71.13 133.612 72 132.862 72H129.772C129.232 72 128.722 71.7 128.392 71.25L123.772 64.29L122.362 66.06V70.83C122.362 71.46 121.822 72 121.192 72H118.612ZM137.771 72C137.141 72 136.601 71.46 136.601 70.83V52.17C136.601 51.51 137.141 51 137.771 51H148.991C149.651 51 150.191 51.51 150.191 52.17V54.51C150.191 55.17 149.651 55.68 148.991 55.68H141.521V59.16H148.061C148.721 59.16 149.231 59.67 149.231 60.33V62.43C149.231 63.09 148.721 63.6 148.061 63.6H141.521V67.29H149.231C149.891 67.29 150.401 67.83 150.401 68.46V70.83C150.401 71.46 149.891 72 149.231 72H137.771ZM154.733 72C154.103 72 153.563 71.46 153.563 70.83V52.17C153.563 51.51 154.103 51 154.733 51H157.763C158.363 51 158.903 51.3 159.203 51.81L166.103 63.84V52.17C166.103 51.51 166.613 51 167.273 51H169.853C170.513 51 171.023 51.51 171.023 52.17V70.83C171.023 71.46 170.513 72 169.853 72H166.823C166.253 72 165.683 71.67 165.413 71.16L158.483 59.16V70.83C158.483 71.46 157.973 72 157.313 72H154.733ZM175.506 72C174.846 72 174.336 71.46 174.336 70.83V52.17C174.336 51.51 174.846 51 175.506 51H182.466C188.616 51 192.936 55.44 192.936 61.5C192.936 67.53 188.616 72 182.466 72H175.506ZM182.466 67.29C185.976 67.29 188.016 64.71 188.016 61.5C188.016 58.26 185.976 55.68 182.466 55.68H179.256V67.29H182.466ZM206.59 72C205.93 72 205.42 71.46 205.42 70.83V52.17C205.42 51.51 205.93 51 206.59 51H213.55C219.7 51 224.02 55.44 224.02 61.5C224.02 67.53 219.7 72 213.55 72H206.59ZM213.55 67.29C217.06 67.29 219.1 64.71 219.1 61.5C219.1 58.26 217.06 55.68 213.55 55.68H210.34V67.29H213.55ZM227.771 72C227.141 72 226.601 71.46 226.601 70.83V52.17C226.601 51.51 227.141 51 227.771 51H238.991C239.651 51 240.191 51.51 240.191 52.17V54.51C240.191 55.17 239.651 55.68 238.991 55.68H231.521V59.16H238.061C238.721 59.16 239.231 59.67 239.231 60.33V62.43C239.231 63.09 238.721 63.6 238.061 63.6H231.521V67.29H239.231C239.891 67.29 240.401 67.83 240.401 68.46V70.83C240.401 71.46 239.891 72 239.231 72H227.771ZM250.793 72C250.103 72 249.473 71.55 249.233 70.89L242.663 52.56C242.363 51.81 242.933 51 243.743 51H246.443C247.043 51 247.583 51.39 247.763 51.96L252.203 65.55L256.643 51.96C256.823 51.39 257.363 51 257.963 51H260.663C261.473 51 262.043 51.81 261.743 52.56L255.143 70.89C254.933 71.55 254.303 72 253.613 72H250.793ZM265.271 72C264.641 72 264.101 71.46 264.101 70.83V52.17C264.101 51.51 264.641 51 265.271 51H276.491C277.151 51 277.691 51.51 277.691 52.17V54.51C277.691 55.17 277.151 55.68 276.491 55.68H269.021V59.16H275.561C276.221 59.16 276.731 59.67 276.731 60.33V62.43C276.731 63.09 276.221 63.6 275.561 63.6H269.021V67.29H276.731C277.391 67.29 277.901 67.83 277.901 68.46V70.83C277.901 71.46 277.391 72 276.731 72H265.271ZM282.293 72C281.633 72 281.093 71.46 281.093 70.83V52.17C281.093 51.51 281.633 51 282.293 51H284.843C285.503 51 286.043 51.51 286.043 52.17V67.29H292.583C293.213 67.29 293.753 67.83 293.753 68.46V70.83C293.753 71.46 293.213 72 292.583 72H282.293ZM305.944 72.45C299.884 72.45 294.934 67.56 294.934 61.5C294.934 55.41 299.884 50.52 305.944 50.52C312.004 50.52 316.954 55.41 316.954 61.5C316.954 67.56 312.004 72.45 305.944 72.45ZM305.944 67.53C309.304 67.53 312.004 64.83 312.004 61.5C312.004 58.14 309.304 55.44 305.944 55.44C302.584 55.44 299.854 58.14 299.854 61.5C299.854 64.83 302.584 67.53 305.944 67.53ZM320.642 72C320.012 72 319.472 71.46 319.472 70.83V52.17C319.472 51.51 320.012 51 320.642 51H327.362C330.932 51 334.382 53.67 334.382 58.23C334.382 62.79 330.932 65.49 327.362 65.49H324.422V70.83C324.422 71.46 323.882 72 323.222 72H320.642ZM327.362 60.81C328.712 60.81 329.582 59.61 329.582 58.23C329.582 56.88 328.712 55.68 327.362 55.68H324.422V60.81H327.362ZM338.103 72C337.473 72 336.933 71.46 336.933 70.83V52.17C336.933 51.51 337.473 51 338.103 51H349.323C349.983 51 350.523 51.51 350.523 52.17V54.51C350.523 55.17 349.983 55.68 349.323 55.68H341.853V59.16H348.393C349.053 59.16 349.563 59.67 349.563 60.33V62.43C349.563 63.09 349.053 63.6 348.393 63.6H341.853V67.29H349.563C350.223 67.29 350.733 67.83 350.733 68.46V70.83C350.733 71.46 350.223 72 349.563 72H338.103ZM355.095 72C354.435 72 353.925 71.46 353.925 70.83V52.17C353.925 51.51 354.435 51 355.095 51H362.295C366.045 51 369.465 53.28 369.465 57.9C369.465 61.23 367.815 63.39 365.535 64.38L369.855 70.5C370.305 71.13 369.855 72 369.105 72H366.015C365.565 72 365.115 71.76 364.845 71.37L360.615 65.04H358.845V70.83C358.845 71.46 358.335 72 357.675 72H355.095ZM362.295 60.57C363.645 60.57 364.605 59.52 364.605 58.14C364.605 56.76 363.645 55.68 362.295 55.68H358.845V60.57H362.295Z" fill="black"/>
<defs>
<filter id="filter0_d_81_22" x="30" y="151" width="306" height="109" filterUnits="userSpaceOnUse" color-interpolation-filters="sRGB">
<feFlood flood-opacity="0" result="BackgroundImageFix"/>
<feColorMatrix in="SourceAlpha" type="matrix" values="0 0 0 0 0 0 0 0 0 0 0 0 0 0 0 0 0 0 127 0" result="hardAlpha"/>
<feOffset dy="8"/>
<feGaussianBlur stdDeviation="4"/>
<feComposite in2="hardAlpha" operator="out"/>
<feColorMatrix type="matrix" values="0 0 0 0 0 0 0 0 0 0 0 0 0 0 0 0 0 0 0.5 0"/>
<feBlend mode="normal" in2="BackgroundImageFix" result="effect1_dropShadow_81_22"/>
<feBlend mode="normal" in="SourceGraphic" in2="effect1_dropShadow_81_22" result="shape"/>
</filter>
<filter id="filter1_d_81_22" x="0" y="0" width="421" height="137" filterUnits="userSpaceOnUse" color-interpolation-filters="sRGB">
<feFlood flood-opacity="0" result="BackgroundImageFix"/>
<feColorMatrix in="SourceAlpha" type="matrix" values="0 0 0 0 0 0 0 0 0 0 0 0 0 0 0 0 0 0 127 0" result="hardAlpha"/>
<feOffset dy="8"/>
<feGaussianBlur stdDeviation="4"/>
<feComposite in2="hardAlpha" operator="out"/>
<feColorMatrix type="matrix" values="0 0 0 0 0 0 0 0 0 0 0 0 0 0 0 0 0 0 0.5 0"/>
<feBlend mode="normal" in2="BackgroundImageFix" result="effect1_dropShadow_81_22"/>
<feBlend mode="normal" in="SourceGraphic" in2="effect1_dropShadow_81_22" result="shape"/>
</filter>
</defs>
</svg>
