<svg width="36" height="36" viewBox="0 0 36 36" fill="none" xmlns="http://www.w3.org/2000/svg">
<path d="M31.714 0H4.286C3.14961 0.00105908 2.06006 0.452959 1.25651 1.25651C0.452959 2.06006 0.00105908 3.14961 0 4.286V31.714C0 34.08 1.922 36 4.286 36H31.714C32.8504 35.9989 33.9399 35.547 34.7435 34.7435C35.547 33.9399 35.9989 32.8504 36 31.714V4.286C35.9989 3.14961 35.547 2.06006 34.7435 1.25651C33.9399 0.452959 32.8504 0.00105908 31.714 0ZM28.29 15.706C27.0285 15.8285 25.7592 15.57 24.646 14.964C23.7071 14.4578 22.9096 13.7249 22.326 12.832V22.72C22.326 24.1654 21.8974 25.5783 21.0944 26.7801C20.2914 27.9819 19.15 28.9186 17.8146 29.4717C16.4793 30.0248 15.0099 30.1696 13.5923 29.8876C12.1747 29.6056 10.8725 28.9096 9.85046 27.8875C8.82842 26.8655 8.1324 25.5633 7.85042 24.1457C7.56844 22.7281 7.71316 21.2587 8.26629 19.9233C8.81941 18.588 9.7561 17.4466 10.9579 16.6436C12.1597 15.8406 13.5726 15.412 15.018 15.412C15.17 15.412 15.318 15.426 15.468 15.434V19.036C15.318 19.018 15.172 18.99 15.018 18.99C14.0287 18.99 13.08 19.383 12.3805 20.0825C11.681 20.782 11.288 21.7307 11.288 22.72C11.288 23.7093 11.681 24.658 12.3805 25.3575C13.08 26.057 14.0287 26.45 15.018 26.45C17.078 26.45 18.898 24.828 18.898 22.768L18.934 5.972H22.38C22.5377 7.46886 23.2163 8.86271 24.2973 9.91006C25.3783 10.9574 26.7929 11.5917 28.294 11.702V15.706" fill="white"/>
</svg>
