<svg width="48" height="57" viewBox="0 0 48 57" fill="none" xmlns="http://www.w3.org/2000/svg">
<path d="M43.2775 3.58658C43.1237 2.57978 42.5767 1.67743 41.7568 1.07794C40.9368 0.47846 39.9111 0.230936 38.9051 0.389803L8.55398 5.18755C8.04897 5.2584 7.56258 5.42922 7.1232 5.69004C6.68383 5.95085 6.30026 6.29643 5.99489 6.70662C5.68951 7.11681 5.46845 7.58339 5.34459 8.07914C5.22072 8.57489 5.19655 9.08988 5.27347 9.59406C5.35039 10.0982 5.52686 10.5815 5.7926 11.0157C6.05834 11.4498 6.40801 11.8262 6.82122 12.1228C7.23442 12.4194 7.70289 12.6303 8.19928 12.7432C8.69567 12.8561 9.21005 12.8687 9.71239 12.7803L30.905 9.4303L0.803783 50.6016C0.200948 51.4261 -0.0514122 52.4551 0.102225 53.4621C0.255863 54.4691 0.80291 55.3717 1.62302 55.9713C2.44313 56.5709 3.46913 56.8184 4.4753 56.6594C5.48148 56.5003 6.38542 55.9477 6.98825 55.1232L37.0895 13.9519L40.3255 35.1623C40.4947 36.155 41.0467 37.0394 41.8626 37.6251C42.6786 38.2108 43.6932 38.4509 44.688 38.2936C45.6827 38.1364 46.578 37.5944 47.181 36.7844C47.784 35.9744 48.0465 34.9612 47.9119 33.963L43.2775 3.58658Z" fill="black"/>
</svg>
